<svg xmlns="http://www.w3.org/2000/svg" viewBox="0 0 57.418 63.418"><title>canada</title><path d="M32.558,50.825c-1.2.3-12.351,3.141-12.351,3.141s.595-2.39,1.2-4.174c.583-1.784,0-2.081-.606-2.676-.31-.3-12.511-10.988-12.511-10.988l2.081-.9c1.189-.583.88-1.356.6-2.07-.3-.9-2.39-8-2.39-8s5.66,1.189,6.861,1.487c.892.285,1.189-.3,1.487-.892S18.709,21.9,18.709,21.9s6.255,7.112,6.552,7.409c1.2.892,2.39,0,2.093-1.189,0-1.189-3.282-15.412-3.282-15.412s3.579,2.069,4.769,2.664c.9.594,1.5.594,2.093-.595.595-.892,5.054-9.49,5.054-9.49s4.471,8.6,5.078,9.49c.595,1.189,1.2,1.189,2.093.595,1.189-.595,4.769-2.664,4.769-2.664s-3.283,14.223-3.283,15.412c-.3,1.189.9,2.081,2.093,1.189.3-.285,6.553-7.409,6.553-7.409s1.487,3.259,1.784,3.854.595,1.177,1.487.891c1.189-.3,6.861-1.486,6.861-1.486s-2.1,7.1-2.39,8c-.285.7-.595,1.487.595,2.07l2.081.891S51.5,46.818,51.2,47.116c-.595.595-1.189.892-.595,2.676s1.19,4.174,1.19,4.174L39.177,50.825l3.971,15.884H29.911Z" transform="translate(-7.291 -4.291)" style="fill:none;stroke:#010101;stroke-linecap:round;stroke-linejoin:round;stroke-width:2px"/></svg>